<svg width="74" height="74" viewBox="0 0 74 74" fill="none" xmlns="http://www.w3.org/2000/svg">
<rect width="74" height="74" rx="10" fill="#FFE2E3"/>
<path d="M19.5 25.5C19.6381 25.0858 20 24.5 20 24.5C20 24.5 20.6716 23 21.5 23C35 23 40 23 51.771 23C52.2891 23 52.5664 23.2163 53 23.5C53.4621 23.8024 54 24.5 54 24.5C54 24.5 54.3895 25.3925 54.5 26C54.6397 26.7685 54.5 28 54.5 28V32L37.5 39.5L19.5 33V28C19.5 28 19.1913 26.4262 19.5 25.5Z" fill="#D92128"/>
<path d="M23 51C22.0375 51 21.2132 50.657 20.5272 49.971C19.8412 49.285 19.4988 48.4613 19.5 47.5V26.5C19.5 25.5375 19.843 24.7132 20.529 24.0272C21.215 23.3412 22.0387 22.9988 23 23H51C51.9625 23 52.7867 23.343 53.4727 24.029C54.1587 24.715 54.5012 25.5387 54.5 26.5V47.5C54.5 48.4625 54.157 49.2868 53.471 49.9728C52.785 50.6588 51.9613 51.0012 51 51H23ZM37 38.4438C37.1458 38.4438 37.2992 38.4216 37.4602 38.3772C37.6212 38.3329 37.7741 38.2676 37.9187 38.1813L50.3 30.4375C50.5333 30.2917 50.7083 30.1091 50.825 29.8897C50.9417 29.6704 51 29.4301 51 29.1688C51 28.5854 50.7521 28.1479 50.2563 27.8563C49.7604 27.5646 49.25 27.5792 48.725 27.9L37 35.25L25.275 27.9C24.75 27.5792 24.2396 27.5722 23.7437 27.879C23.2479 28.1858 23 28.6158 23 29.1688C23 29.4604 23.0583 29.7159 23.175 29.9352C23.2917 30.1546 23.4667 30.322 23.7 30.4375L36.0813 38.1813C36.2271 38.2688 36.3805 38.3347 36.5415 38.379C36.7025 38.4233 36.8553 38.4449 37 38.4438Z" fill="#070404"/>
</svg>
